<?xml version="1.0" encoding="UTF-8" standalone="no"?>
<!-- Created with Inkscape (http://www.inkscape.org/) -->

<svg
   width="64pt"
   height="64pt"
   viewBox="0 0 22.577778 22.577778"
   version="1.1"
   id="svg831"
   inkscape:version="1.1.2 (b8e25be833, 2022-02-05)"
   sodipodi:docname="Export - Unblash - 64px.svg"
   inkscape:export-filename="E:\Project Design\TR Icon Design Project\Carlos - Icon Design Project\Done\Flat\03 - Tennis.png"
   inkscape:export-xdpi="576"
   inkscape:export-ydpi="576"
   xmlns:inkscape="http://www.inkscape.org/namespaces/inkscape"
   xmlns:sodipodi="http://sodipodi.sourceforge.net/DTD/sodipodi-0.dtd"
   xmlns="http://www.w3.org/2000/svg"
   xmlns:svg="http://www.w3.org/2000/svg"
   xmlns:rdf="http://www.w3.org/1999/02/22-rdf-syntax-ns#"
   xmlns:cc="http://creativecommons.org/ns#"
   xmlns:dc="http://purl.org/dc/elements/1.1/">
  <defs
     id="defs825">
    <pattern
       id="EMFhbasepattern"
       patternUnits="userSpaceOnUse"
       width="6"
       height="6"
       x="0"
       y="0" />
    <pattern
       id="EMFhbasepattern-9"
       patternUnits="userSpaceOnUse"
       width="6"
       height="6"
       x="0"
       y="0" />
    <pattern
       id="EMFhbasepattern-0"
       patternUnits="userSpaceOnUse"
       width="6"
       height="6"
       x="0"
       y="0" />
    <pattern
       id="EMFhbasepattern-7"
       patternUnits="userSpaceOnUse"
       width="6"
       height="6"
       x="0"
       y="0" />
    <pattern
       id="EMFhbasepattern-2"
       patternUnits="userSpaceOnUse"
       width="6"
       height="6"
       x="0"
       y="0" />
    <pattern
       id="EMFhbasepattern-98"
       patternUnits="userSpaceOnUse"
       width="6"
       height="6"
       x="0"
       y="0" />
    <pattern
       id="EMFhbasepattern-6"
       patternUnits="userSpaceOnUse"
       width="6"
       height="6"
       x="0"
       y="0" />
    <pattern
       id="EMFhbasepattern-01"
       patternUnits="userSpaceOnUse"
       width="6"
       height="6"
       x="0"
       y="0" />
    <pattern
       id="EMFhbasepattern-07"
       patternUnits="userSpaceOnUse"
       width="6"
       height="6"
       x="0"
       y="0" />
    <pattern
       id="EMFhbasepattern-8"
       patternUnits="userSpaceOnUse"
       width="6"
       height="6"
       x="0"
       y="0" />
    <pattern
       id="EMFhbasepattern-4"
       patternUnits="userSpaceOnUse"
       width="6"
       height="6"
       x="0"
       y="0" />
    <pattern
       id="EMFhbasepattern-40"
       patternUnits="userSpaceOnUse"
       width="6"
       height="6"
       x="0"
       y="0" />
    <pattern
       id="EMFhbasepattern-08"
       patternUnits="userSpaceOnUse"
       width="6"
       height="6"
       x="0"
       y="0" />
    <pattern
       id="EMFhbasepattern-04"
       patternUnits="userSpaceOnUse"
       width="6"
       height="6"
       x="0"
       y="0" />
    <pattern
       id="EMFhbasepattern-014"
       patternUnits="userSpaceOnUse"
       width="6"
       height="6"
       x="0"
       y="0" />
    <pattern
       id="EMFhbasepattern-27"
       patternUnits="userSpaceOnUse"
       width="6"
       height="6"
       x="0"
       y="0" />
    <pattern
       id="EMFhbasepattern-09"
       patternUnits="userSpaceOnUse"
       width="6"
       height="6"
       x="0"
       y="0" />
    <pattern
       id="EMFhbasepattern-5"
       patternUnits="userSpaceOnUse"
       width="6"
       height="6"
       x="0"
       y="0" />
    <pattern
       id="EMFhbasepattern-018"
       patternUnits="userSpaceOnUse"
       width="6"
       height="6"
       x="0"
       y="0" />
  </defs>
  <sodipodi:namedview
     id="base"
     pagecolor="#ffffff"
     bordercolor="#666666"
     borderopacity="1.0"
     inkscape:pageopacity="0.0"
     inkscape:pageshadow="2"
     inkscape:zoom="4.9552717"
     inkscape:cx="44.498065"
     inkscape:cy="42.379109"
     inkscape:document-units="pt"
     inkscape:current-layer="layer1"
     showgrid="false"
     units="pt"
     inkscape:window-width="958"
     inkscape:window-height="1041"
     inkscape:window-x="-7"
     inkscape:window-y="0"
     inkscape:window-maximized="0"
     inkscape:pagecheckerboard="true"
     inkscape:showpageshadow="false"
     inkscape:object-paths="true"
     inkscape:snap-intersection-paths="true"
     inkscape:snap-smooth-nodes="true"
     inkscape:snap-midpoints="true"
     showguides="true"
     inkscape:snap-bbox="true"
     inkscape:bbox-nodes="true"
     inkscape:snap-nodes="false"
     inkscape:snap-global="true"
     inkscape:snap-others="false">
    <inkscape:grid
       type="xygrid"
       id="grid1378" />
    <sodipodi:guide
       position="0.97013831,21.607643"
       orientation="78.000048,0"
       id="guide1380"
       inkscape:locked="false" />
    <sodipodi:guide
       position="0.97013831,0.97013129"
       orientation="0,78.000005"
       id="guide1382"
       inkscape:locked="false" />
    <sodipodi:guide
       position="21.607639,0.97013129"
       orientation="-78.000048,0"
       id="guide1384"
       inkscape:locked="false" />
    <sodipodi:guide
       position="21.607639,21.607643"
       orientation="0,-78.000005"
       id="guide1386"
       inkscape:locked="false" />
  </sodipodi:namedview>
  <metadata
     id="metadata828">
    <rdf:RDF>
      <cc:Work
         rdf:about="">
        <dc:format>image/svg+xml</dc:format>
        <dc:type
           rdf:resource="http://purl.org/dc/dcmitype/StillImage" />
      </cc:Work>
    </rdf:RDF>
  </metadata>
  <g
     inkscape:label="Icon"
     inkscape:groupmode="layer"
     id="layer1"
     transform="translate(0,-274.42223)">
    <g
       id="g402519"
       style="display:inline;stroke-width:0.794127"
       transform="matrix(1.2592451,0,0,1.2592451,-38.243263,-38.250192)">
      <path
         style="color:#000000;fill:#a8c2e1;stroke-width:0.794127;stroke-linecap:round;stroke-linejoin:round;-inkscape-stroke:none"
         d="m 41.179687,263.29094 v 0.81445 c 0,0.44733 0.346879,0.83398 0.792969,0.83398 0.44609,0 0.792969,-0.38665 0.792969,-0.83398 v -1.09961 z"
         id="path609722"
         sodipodi:nodetypes="cssscc" />
      <path
         style="color:#000000;fill:#a8c2e1;stroke-width:0.794127;stroke-linecap:round;stroke-linejoin:round;-inkscape-stroke:none"
         d="m 39.044285,263.67779 c 0.01177,0.0777 0.01821,0.1364 0.01821,0.14248 v 0.28516 c 0,0.44733 0.346879,0.83398 0.792969,0.83398 0.44609,0 0.794922,-0.38665 0.794922,-0.83398 v -0.28516 c 0,-0.006 0.0064,-0.0648 0.01821,-0.14249 z"
         id="path609704"
         sodipodi:nodetypes="cssssscc" />
      <path
         style="color:#000000;fill:#a8c2e1;stroke-width:0.794127;stroke-linecap:round;stroke-linejoin:round;-inkscape-stroke:none"
         d="m 34.298826,263.29108 v 0.81445 c 0,0.44733 0.348832,0.83398 0.794922,0.83398 0.44609,0 0.792969,-0.38665 0.792969,-0.83398 v -0.81445 z"
         id="path609710"
         sodipodi:nodetypes="cssscc" />
      <path
         style="color:#000000;fill:#a8c2e1;stroke-width:0.794127;stroke-linecap:round;stroke-linejoin:round;-inkscape-stroke:none"
         d="m 32.183594,263.33201 v 0.77344 c 0,0.44733 0.346878,0.83398 0.792968,0.83398 0.446091,0 0.794922,-0.38665 0.794922,-0.83398 V 263.291 Z"
         id="path609716"
         sodipodi:nodetypes="cssscc" />
      <path
         style="color:#000000;fill:#dc1c4b;fill-opacity:1;stroke-width:0.794127;stroke-linecap:round;stroke-linejoin:round;-inkscape-stroke:none"
         d="m 32.679687,258.15234 c -0.279609,-0.005 -0.518695,0.1662 -0.689453,0.40039 -0.172263,0.23626 -0.306111,0.5491 -0.421875,0.9336 -0.231527,0.769 -0.380014,1.82569 -0.427734,3.06054 a 0.26460996,0.26460996 0 0 0 0.265625,0.2754 h 12.421875 a 0.26460996,0.26460996 0 0 0 0.263672,-0.26563 v -0.44531 c -0.0013,-0.61307 -0.397705,-1.15707 -0.976563,-1.30078 l -2.638672,-0.65625 -3.130859,-1.53711 c -0.171394,-0.0868 -0.379857,-0.14614 -0.599609,-0.16211 -0.219752,-0.016 -0.462312,0.007 -0.660157,0.16992 -0.240994,0.19853 -0.403203,0.4395 -0.558593,0.60742 -0.15539,0.16792 -0.266765,0.25 -0.433594,0.25 -0.500784,0 -0.803845,-0.0809 -0.994141,-0.18164 -0.190295,-0.10078 -0.282151,-0.22133 -0.371093,-0.36914 -0.08894,-0.14781 -0.158535,-0.32837 -0.314454,-0.5 -0.153858,-0.16936 -0.413066,-0.28434 -0.734375,-0.2793 z"
         id="path17972" />
      <path
         id="path172785"
         style="color:#000000;fill:#b01d47;fill-opacity:1;stroke-width:0.794127;stroke-linecap:round;stroke-linejoin:round;-inkscape-stroke:none"
         d="m 32.679659,258.15223 c -0.279609,-0.005 -0.518604,0.16631 -0.689364,0.4005 -0.172262,0.23626 -0.305914,0.54929 -0.421679,0.93379 -0.231527,0.769 -0.380162,1.82543 -0.427879,3.06028 a 0.26460996,0.26460996 0 0 0 0.02066,0.10645 c 0.06266,-1.0534 0.202597,-1.95795 0.407209,-2.63756 0.115766,-0.3845 0.249418,-0.69754 0.42168,-0.9338 0.17076,-0.23419 0.409755,-0.40549 0.689364,-0.40049 0.32131,-0.005 0.580464,0.11021 0.734322,0.27957 0.155919,0.17163 0.225769,0.3519 0.314711,0.49971 0.08894,0.14781 0.18074,0.26871 0.371036,0.36949 0.190296,0.10074 0.493469,0.18138 0.994254,0.18138 0.16683,0 0.278175,-0.0822 0.433565,-0.25011 0.15539,-0.16792 0.317629,-0.40867 0.558623,-0.6072 0.197844,-0.16292 0.440155,-0.18601 0.659907,-0.17001 0.219753,0.016 0.428054,0.0755 0.599448,0.16226 l 3.131074,1.53686 2.6386,0.65629 c 0.560769,0.13922 0.950153,0.65443 0.975133,1.24385 a 0.26460996,0.26460996 0 0 0 0.0016,-0.0269 v -0.44545 c -0.0013,-0.61307 -0.397825,-1.15699 -0.976683,-1.3007 l -2.6386,-0.65629 -3.131074,-1.53686 c -0.171394,-0.0868 -0.379695,-0.14629 -0.599448,-0.16226 -0.219752,-0.016 -0.462063,0.007 -0.659907,0.17001 -0.240993,0.19853 -0.403233,0.43928 -0.558623,0.6072 -0.15539,0.16792 -0.266735,0.25012 -0.433565,0.25012 -0.500785,0 -0.803958,-0.0806 -0.994254,-0.18139 -0.190296,-0.10078 -0.282096,-0.22167 -0.371036,-0.36948 -0.08894,-0.14781 -0.158792,-0.32809 -0.314711,-0.49972 -0.153858,-0.16936 -0.413012,-0.28461 -0.734322,-0.27957 z" />
      <path
         id="path19751"
         style="color:#000000;fill:#b01d47;fill-opacity:1;stroke-width:0.794127;stroke-linecap:round;stroke-linejoin:round;-inkscape-stroke:none"
         d="m 35.345646,259.39919 c -0.07825,0.0551 -0.155631,0.0832 -0.251664,0.0832 -0.116139,0 -0.221363,-0.004 -0.317293,-0.0124 0.245025,0.41885 0.492958,0.83707 0.746725,1.25263 l -0.949296,0.54674 a 0.26460996,0.26460996 0 0 0 -0.101285,0.35347 l 0.564306,1.05885 a 0.2645835,0.2645835 0 0 0 0.3576,0.10903 0.2645835,0.2645835 0 0 0 0.109038,-0.35708 l -0.443384,-0.83199 0.959115,-0.55501 a 0.26460996,0.26460996 0 0 0 0.09199,-0.36897 c -0.261175,-0.42164 -0.515104,-0.84865 -0.765847,-1.27847 z" />
      <path
         style="color:#000000;fill:#d0e2ee;stroke-width:0.794127;stroke-linecap:round;stroke-linejoin:round;-inkscape-stroke:none"
         d="m 43.03125,263.80082 c 0.595774,0 1.063103,-0.51868 1.060547,-1.12695 v -0.38086 l -12.951172,-4e-5 v 0.26562 c 0,0.3732 0.09873,0.68334 0.287109,0.90821 0.188382,0.22486 0.455964,0.349 0.734375,0.39257 z"
         id="path17984"
         sodipodi:nodetypes="cccccccc" />
      <path
         style="color:#000000;fill:#ececec;stroke-width:0.794127;stroke-linecap:round;stroke-linejoin:round;-inkscape-stroke:none"
         d="m 43.125,249.63086 c -1.944114,-0.24038 -3.936602,0.6753 -4.976563,2.47656 -1.386613,2.40169 -0.561843,5.48058 1.839844,6.86719 2.401683,1.38661 5.480574,0.56184 6.867188,-1.83984 1.386615,-2.40169 0.56184,-5.48058 -1.839844,-6.86719 -0.600421,-0.34666 -1.242587,-0.55659 -1.890625,-0.63672 z"
         id="path21658" />
      <path
         style="color:#000000;fill:#4d545c;stroke-width:0.794127;stroke-linecap:round;stroke-linejoin:round;-inkscape-stroke:none"
         d="m 40.236328,253.60742 a 0.26460996,0.26460996 0 0 0 -0.228516,0.13281 l -0.888671,1.54102 a 0.26460996,0.26460996 0 0 0 0,0.26562 l 0.888671,1.54102 a 0.26460996,0.26460996 0 0 0 0.228516,0.13281 h 1.78125 a 0.26460996,0.26460996 0 0 0 0.228516,-0.13281 l 0.890625,-1.54102 a 0.26460996,0.26460996 0 0 0 0,-0.26562 l -0.890625,-1.54102 a 0.26460996,0.26460996 0 0 0 -0.228516,-0.13281 z"
         id="path44654" />
      <path
         style="color:#000000;fill:#b01d47;fill-opacity:1;stroke-width:0.794127;stroke-linecap:round;stroke-linejoin:round;-inkscape-stroke:none"
         d="m 36.681641,261.23437 a 0.2645835,0.2645835 0 0 0 -0.265625,0.26563 0.2645835,0.2645835 0 0 0 0.265625,0.26367 h 2.115234 A 0.2645835,0.2645835 0 0 0 39.0625,261.5 0.2645835,0.2645835 0 0 0 38.796875,261.23437 Z"
         id="path86075" />
      <path
         style="color:#000000;fill:#4d545c;stroke-width:0.794127;stroke-linecap:round;stroke-linejoin:round;-inkscape-stroke:none"
         d="m 42.90625,252.06641 a 0.26460996,0.26460996 0 0 0 -0.228516,0.13281 l -0.890625,1.54101 a 0.26460996,0.26460996 0 0 0 0,0.26563 l 0.890625,1.54101 a 0.26460996,0.26460996 0 0 0 0.228516,0.13086 h 1.779297 a 0.26460996,0.26460996 0 0 0 0.230469,-0.13086 l 0.888671,-1.54101 a 0.26460996,0.26460996 0 0 0 0,-0.26563 l -0.888671,-1.54101 a 0.26460996,0.26460996 0 0 0 -0.230469,-0.13281 z"
         id="path43615" />
      <path
         style="color:#000000;fill:#ececec;fill-opacity:1;stroke-width:0.794127;stroke-linecap:round;stroke-linejoin:round;-inkscape-stroke:none"
         d="m 43.058594,252.5957 h 1.474609 l 0.736328,1.27735 -0.736328,1.27734 h -1.474609 l -0.736328,-1.27734 z"
         id="path43621" />
      <path
         id="path36253"
         style="color:#000000;fill:#4d545c;stroke-width:0.794127;stroke-linecap:round;stroke-linejoin:round;-inkscape-stroke:none"
         d="m 45.421519,250.52893 c -0.321458,0.55677 -0.642786,1.11332 -0.964284,1.67018 a 0.26460996,0.26460996 0 0 0 0,0.26562 l 0.890386,1.54099 a 0.26460996,0.26460996 0 0 0 0.22841,0.13126 h 1.928564 c -0.138089,-1.40962 -0.86759,-2.74254 -2.083076,-3.60805 z" />
      <path
         style="color:#000000;fill:#4d545c;stroke-width:0.794127;stroke-linecap:round;stroke-linejoin:round;-inkscape-stroke:none"
         d="m 40.236328,250.52539 a 0.26460996,0.26460996 0 0 0 -0.228516,0.13281 l -0.888671,1.54102 a 0.26460996,0.26460996 0 0 0 0,0.26562 l 0.888671,1.54102 a 0.26460996,0.26460996 0 0 0 0.228516,0.13086 h 1.78125 a 0.26460996,0.26460996 0 0 0 0.228516,-0.13086 l 0.890625,-1.54102 a 0.26460996,0.26460996 0 0 0 0,-0.26562 l -0.890625,-1.54102 a 0.26460996,0.26460996 0 0 0 -0.228516,-0.13281 z"
         id="path39889" />
      <path
         style="color:#000000;fill:#ececec;fill-opacity:1;stroke-width:0.794127;stroke-linecap:round;stroke-linejoin:round;-inkscape-stroke:none"
         d="m 40.390625,251.05469 h 1.472656 l 0.738281,1.27734 -0.738281,1.27539 h -1.472656 l -0.738281,-1.27539 z"
         id="path39895" />
      <path
         id="path41464"
         style="color:#000000;fill:#4d545c;stroke-width:0.794127;stroke-linecap:round;stroke-linejoin:round;-inkscape-stroke:none"
         d="m 38.173381,252.0663 c -0.230151,1.22828 -0.800119,2.54022 -0.584445,3.61163 h 1.758548 c 0.09424,1.3e-4 0.181437,-0.0499 0.228928,-0.13126 l 0.890384,-1.54099 c 0.04766,-0.0821 0.04766,-0.18349 0,-0.26562 l -0.890384,-1.54099 c -0.0471,-0.082 -0.13437,-0.13262 -0.228928,-0.13281 z"
         sodipodi:nodetypes="ccccccccc" />
      <path
         id="path41470"
         style="color:#000000;fill:#ececec;fill-opacity:1;stroke-width:0.794127;stroke-linecap:round;stroke-linejoin:round;-inkscape-stroke:none"
         d="m 37.901048,252.59547 c -0.363318,0.8233 -0.487982,1.70375 -0.396875,2.55488 h 1.691367 l 0.735875,-1.27744 -0.735875,-1.27744 z" />
      <path
         id="path37699"
         style="color:#000000;fill:#4d545c;stroke-width:0.794127;stroke-linecap:round;stroke-linejoin:round;-inkscape-stroke:none"
         d="m 42.326096,249.7248 -0.538985,0.93328 c -0.04766,0.0821 -0.04766,0.18349 0,0.26562 l 0.890384,1.54099 c 0.04762,0.0812 0.134796,0.13098 0.228928,0.13074 h 1.779217 c 0.09468,8e-4 0.182578,-0.0491 0.230479,-0.13074 l 0.814419,-1.41387 0.109556,-0.18965 c -0.249407,-0.2212 -0.524465,-0.42069 -0.824241,-0.59376 -0.600421,-0.34666 -1.242803,-0.55653 -1.890839,-0.63666 -0.182261,-0.0225 -0.364969,-0.0348 -0.547254,-0.0372 z"
         sodipodi:nodetypes="ccccccccccccc" />
      <path
         id="path37705"
         style="color:#000000;fill:#ececec;fill-opacity:1;stroke-width:0.794127;stroke-linecap:round;stroke-linejoin:round;-inkscape-stroke:none"
         d="m 42.99996,249.61787 -0.214974,0.37259 -0.462505,0.80047 0.737942,1.27537 h 1.472776 l 0.740008,-1.27899 0.148828,-0.25787 c -0.130037,-0.0926 -0.265136,-0.18057 -0.406177,-0.26199 -0.600422,-0.34666 -1.242804,-0.55653 -1.89084,-0.63666 -0.04164,-0.005 -0.08338,-0.009 -0.125058,-0.0129 z" />
      <path
         style="color:#000000;fill:#4d545c;stroke-width:0.794127;stroke-linecap:round;stroke-linejoin:round;-inkscape-stroke:none"
         d="m 42.90625,255.15039 a 0.26460996,0.26460996 0 0 0 -0.228516,0.13086 l -0.890625,1.54102 a 0.26460996,0.26460996 0 0 0 0,0.26562 l 0.890625,1.54102 a 0.26460996,0.26460996 0 0 0 0.228516,0.13281 h 1.779297 a 0.26460996,0.26460996 0 0 0 0.230469,-0.13281 l 0.888671,-1.54102 a 0.26460996,0.26460996 0 0 0 0,-0.26562 l -0.888671,-1.54102 a 0.26460996,0.26460996 0 0 0 -0.230469,-0.13086 z"
         id="path33060" />
      <path
         style="color:#000000;fill:#ececec;fill-opacity:1;stroke-width:0.794127;stroke-linecap:round;stroke-linejoin:round;-inkscape-stroke:none"
         d="m 43.058594,255.67773 h 1.474609 l 0.736328,1.27735 -0.736328,1.27734 h -1.474609 l -0.736328,-1.27734 z"
         id="path33066" />
      <path
         id="path34658"
         style="color:#000000;fill:#4d545c;stroke-width:0.794127;stroke-linecap:round;stroke-linejoin:round;-inkscape-stroke:none"
         d="m 45.576031,253.60729 a 0.26460996,0.26460996 0 0 0 -0.22841,0.13281 l -0.890386,1.54099 a 0.26460996,0.26460996 0 0 0 0,0.26562 l 0.890386,1.54099 a 0.26460996,0.26460996 0 0 0 0.22841,0.13281 h 1.228865 c 0.01712,-0.0284 0.03401,-0.057 0.05064,-0.0858 0.640413,-1.10924 0.80894,-2.36273 0.568439,-3.52744 z" />
      <path
         id="path34664"
         style="color:#000000;fill:#ececec;fill-opacity:1;stroke-width:0.794127;stroke-linecap:round;stroke-linejoin:round;-inkscape-stroke:none"
         d="m 45.728476,254.13698 -0.736389,1.27692 0.736389,1.27744 h 1.354439 c 0.372173,-0.82159 0.505198,-1.70182 0.42168,-2.55436 z" />
      <path
         id="path31764"
         style="color:#000000;fill:#4d545c;stroke-width:0.794127;stroke-linecap:round;stroke-linejoin:round;-inkscape-stroke:none"
         d="m 42.906427,258.23233 a 0.26460996,0.26460996 0 0 0 -0.228928,0.13074 l -0.511595,0.88677 -0.212392,0.36846 c 1.137957,0.12355 2.287606,-0.14722 3.249414,-0.7581 l -0.286803,-0.49713 a 0.26460996,0.26460996 0 0 0 -0.230478,-0.13074 z" />
      <path
         id="path31770"
         style="color:#000000;fill:#ececec;fill-opacity:1;stroke-width:0.794127;stroke-linecap:round;stroke-linejoin:round;-inkscape-stroke:none"
         d="m 43.058353,258.7615 c -0.170258,0.2952 -0.340516,0.59041 -0.510564,0.88573 0.761267,-0.008 1.512105,-0.18918 2.192631,-0.52658 l -0.207224,-0.35915 z"
         sodipodi:nodetypes="ccccc" />
      <path
         id="path39145"
         style="color:#000000;fill:#4d545c;stroke-width:0.794127;stroke-linecap:round;stroke-linejoin:round;-inkscape-stroke:none"
         d="m 40.18101,250.16306 c -0.821942,0.42682 -1.535867,1.08451 -2.032434,1.94458 -0.09231,0.15989 -0.174633,0.32264 -0.247528,0.48783 h 1.446421 a 0.26460996,0.26460996 0 0 0 0.228928,-0.13074 l 0.890384,-1.54099 a 0.26460996,0.26460996 0 0 0 0,-0.26562 z" />
      <path
         id="path39151"
         style="color:#000000;fill:#ececec;fill-opacity:1;stroke-width:0.794127;stroke-linecap:round;stroke-linejoin:round;-inkscape-stroke:none"
         d="m 39.724191,250.43178 c -0.616344,0.40767 -1.151242,0.95732 -1.55081,1.63452 h 1.022159 l 0.735875,-1.27537 z" />
      <path
         id="path157841"
         style="color:#000000;fill:#cccccc;fill-opacity:1;stroke-width:0.794127;stroke-linecap:round;stroke-linejoin:round;-inkscape-stroke:none"
         d="m 42.57673,249.59358 c -1.462402,-0.0196 -2.898204,0.60066 -3.882967,1.74563 1.075952,-0.92552 2.50008,-1.35241 3.900538,-1.17925 0.648039,0.0801 1.292487,0.28999 1.892906,0.63665 2.401686,1.38661 3.226297,4.46559 1.839682,6.86728 -0.159959,0.27706 -0.342791,0.53277 -0.544152,0.76688 0.41748,-0.35898 0.782698,-0.79268 1.073319,-1.29604 1.386615,-2.40169 0.562004,-5.48067 -1.839682,-6.86728 -0.600419,-0.34666 -1.244868,-0.55653 -1.892906,-0.63666 z"
         sodipodi:nodetypes="ccccsccscc" />
      <path
         id="path20132"
         style="color:#000000;fill:#d0e2ee;stroke-width:0.794127;stroke-linecap:round;stroke-linejoin:round;-inkscape-stroke:none"
         d="m 37.418389,258.65298 -0.986504,1.06195 a 0.2645835,0.2645835 0 0 0 0.01344,0.37517 0.2645835,0.2645835 0 0 0 0.373105,-0.014 l 1.096057,-1.17926 z m 1.090372,0.53537 -0.690396,0.7431 a 0.2645835,0.2645835 0 0 0 0.01344,0.37311 0.2645835,0.2645835 0 0 0 0.373102,-0.0134 l 0.799952,-0.85938 z" />
      <path
         id="path20136"
         style="color:#000000;fill:#b01d47;fill-opacity:1;stroke-width:0.794127;stroke-linecap:round;stroke-linejoin:round;-inkscape-stroke:none"
         d="m 40.357228,260.09579 -0.423747,0.42374 a 0.2645835,0.2645835 0 0 0 0,0.37311 0.2645835,0.2645835 0 0 0 0.375172,0 l 0.623734,-0.62529 -0.455787,-0.11317 z" />
      <path
         id="path24180"
         style="color:#000000;fill:#4d545c;fill-opacity:1;stroke-width:0.794127;stroke-linecap:round;stroke-linejoin:round;-inkscape-stroke:none"
         d="m 37.504173,255.15035 c 0.147489,1.37787 0.860303,2.67843 2.039667,3.53519 l 0.922941,-1.59784 a 0.26460996,0.26460996 0 0 0 0,-0.26562 l -0.890384,-1.54099 a 0.26460996,0.26460996 0 0 0 -0.228928,-0.13074 z" />
      <path
         id="path24186"
         style="color:#000000;fill:#ececec;fill-opacity:1;stroke-width:0.794127;stroke-linecap:round;stroke-linejoin:round;-inkscape-stroke:none"
         d="m 37.588921,255.67797 c 0.21771,1.01022 0.744303,1.95079 1.537891,2.66908 l 0.804603,-1.39216 -0.735875,-1.27692 z" />
      <path
         id="path28678"
         style="color:#000000;fill:#4d545c;fill-opacity:1;stroke-width:0.794127;stroke-linecap:round;stroke-linejoin:round;-inkscape-stroke:none"
         d="m 40.236305,256.69134 a 0.26460996,0.26460996 0 0 0 -0.228409,0.13074 l -0.880568,1.52549 c 0.259119,0.23447 0.546235,0.44515 0.86093,0.62684 0.806897,0.46586 1.690132,0.68161 2.56005,0.67231 l 0.588595,-1.01803 a 0.26460996,0.26460996 0 0 0 0,-0.26562 l -0.890902,-1.54099 a 0.26460996,0.26460996 0 0 0 -0.22841,-0.13074 z" />
      <path
         id="path28684"
         style="color:#000000;fill:#ececec;fill-opacity:1;stroke-width:0.794127;stroke-linecap:round;stroke-linejoin:round;-inkscape-stroke:none"
         d="m 40.390816,257.22051 -0.846976,1.46554 c 0.141531,0.10281 0.289613,0.19898 0.444418,0.28836 0.623102,0.35974 1.291849,0.57076 1.964738,0.64389 l 0.648539,-1.12242 -0.738455,-1.27537 z" />
      <path
         id="path49549"
         style="color:#000000;fill:#4d545c;fill-opacity:1;stroke-width:0.794127;stroke-linecap:round;stroke-linejoin:round;-inkscape-stroke:none"
         d="m 45.576031,256.69134 a 0.26460996,0.26460996 0 0 0 -0.22841,0.13074 l -0.890386,1.54099 a 0.26460996,0.26460996 0 0 0 0,0.26562 l 0.284221,0.49144 c 0.856197,-0.42473 1.601118,-1.09693 2.114084,-1.9854 0.08396,-0.14542 0.159493,-0.29353 0.227375,-0.44339 z" />
      <path
         id="path54545"
         style="color:#000000;fill:#4d545c;fill-opacity:1;stroke-width:0.794127;stroke-linecap:round;stroke-linejoin:round;-inkscape-stroke:none"
         d="m 39.724191,250.43178 0.283705,0.49196 c 0.04753,0.081 0.134462,0.1308 0.228409,0.13074 h 1.781286 c 0.09395,6e-5 0.180881,-0.0497 0.22841,-0.13074 l 0.753959,-1.30587 c -1.132619,-0.097 -2.460433,0.28798 -3.275769,0.81391 z"
         sodipodi:nodetypes="ccccccc" />
      <path
         id="path162193"
         style="color:#000000;fill:#143441;fill-opacity:1;stroke-width:0.794127;stroke-linecap:round;stroke-linejoin:round;-inkscape-stroke:none"
         d="m 39.724162,250.43201 0.10077,0.17466 c 0.978004,-0.37 1.979241,-0.53555 2.854601,-0.43358 l 0.319879,-0.55397 c -1.231648,-0.0928 -2.282671,0.15456 -3.27525,0.81289 z"
         sodipodi:nodetypes="ccccc" />
      <path
         id="path165359"
         style="color:#000000;fill:#143441;fill-opacity:1;stroke-width:0.794127;stroke-linecap:round;stroke-linejoin:round;-inkscape-stroke:none"
         d="m 45.04893,251.17437 c 0.973482,0.75176 1.608805,1.81366 1.845882,2.96261 h 0.608751 c -0.152962,-1.68093 -1.13034,-2.95322 -2.082146,-3.60841 -0.124122,0.21551 -0.248286,0.43068 -0.372487,0.6458 z"
         sodipodi:nodetypes="ccccc" />
      <path
         id="path166731"
         style="color:#000000;fill:#143441;fill-opacity:1;stroke-width:0.794127;stroke-linecap:round;stroke-linejoin:round;-inkscape-stroke:none"
         d="m 46.069017,258.16359 c 0.09062,-0.0902 0.174054,-0.18599 0.2558,-0.278 0.158872,-0.18175 0.304535,-0.39807 0.43018,-0.58456 0.123793,-0.19132 0.235986,-0.42002 0.32786,-0.60979 l -0.324469,1e-4 c -0.107151,0.33226 -0.25,0.65819 -0.431499,0.97255 -0.15939,0.27607 -0.341572,0.53087 -0.538986,0.7618 0.09924,-0.0827 0.190992,-0.1741 0.281114,-0.2621 z"
         sodipodi:nodetypes="cccccscc" />
      <path
         id="path173884"
         style="color:#000000;fill:#801231;fill-opacity:1;stroke-width:0.794127;stroke-linecap:round;stroke-linejoin:round;-inkscape-stroke:none"
         d="m 34.918238,259.47835 c -0.05313,-0.002 -0.09559,-0.006 -0.141589,-0.009 0.105757,0.18079 0.212286,0.36119 0.31936,0.54157 0.205146,0.003 0.329262,-0.14091 0.449598,-0.27131 -0.06695,-0.11343 -0.133559,-0.22719 -0.199975,-0.34075 -0.128713,0.10005 -0.262891,0.088 -0.427394,0.0795 z"
         sodipodi:nodetypes="cccccc" />
      <path
         id="path177050"
         style="color:#000000;fill:#cccccc;fill-opacity:1;stroke-width:0.794127;stroke-linecap:round;stroke-linejoin:round;-inkscape-stroke:none"
         d="m 37.418389,258.65298 -0.358119,0.38551 c 0.102262,0.0278 0.198578,0.0641 0.285256,0.108 l 0.23151,0.11369 0.337447,-0.36329 c -0.165389,-0.0813 -0.330748,-0.16257 -0.496094,-0.24391 z m 1.090372,0.53537 -0.337447,0.36328 0.495578,0.2434 0.337963,-0.36329 z"
         sodipodi:nodetypes="ccccccccccc" />
      <path
         id="path178695"
         style="color:#000000;fill:#801231;fill-opacity:1;stroke-width:0.794127;stroke-linecap:round;stroke-linejoin:round;-inkscape-stroke:none"
         d="m 40.357228,260.09579 -0.355018,0.35501 0.47439,0.23255 0.03256,0.008 0.42323,-0.42426 -0.455787,-0.11317 z" />
    </g>
  </g>
</svg>
